<svg xmlns="http://www.w3.org/2000/svg" viewBox="0.9 0.2 544.2 129.4"><mask id="k" maskUnits="userSpaceOnUse" x="0" y="0" width="546" height="130"><rect width="546" height="130" fill="#fff"/><path fill="#000" d="M78.273,49.019 C80.622,49.019 82.525,47.116 82.525,44.767 C82.525,42.419 80.622,40.515 78.273,40.515 C75.925,40.515 74.021,42.419 74.021,44.767 C74.021,47.116 75.925,49.019 78.273,49.019"/><path fill="#000" d="M34.075,49.019 C36.423,49.019 38.327,47.116 38.327,44.767 C38.327,42.419 36.423,40.515 34.075,40.515 C31.727,40.515 29.823,42.419 29.823,44.767 C29.823,47.116 31.727,49.019 34.075,49.019"/><path fill="#000" d="M82.413,37.054 C85.764,38.701 88.229,42.148 88.229,46.134 C88.229,51.719 83.78,56.247 78.195,56.247 C73.802,56.247 70.105,53.446 68.708,49.534 C68.586,49.665 68.483,49.795 68.361,49.927 C58.169,61.003 56.497,75.79 56.22,81.093 C56.185,81.109 56.169,81.119 56.169,81.119 C56.169,81.119 56.151,81.109 56.114,81.092 C55.829,75.787 54.127,61.002 43.935,49.927 C43.821,49.804 43.706,49.682 43.592,49.559 C42.188,53.458 38.458,56.247 34.075,56.247 C28.489,56.247 23.962,51.719 23.962,46.134 C23.962,42.154 26.403,38.712 29.746,37.062 C25.94,34.168 22,31.647 19,29.54 L19,58.671 C19,58.671 18.859,78.53 27.924,90.793 C39.569,106.544 56.245,116.396 56.245,116.396 C56.245,116.396 72.663,106.544 84.308,90.793 C93.374,78.53 93,58.671 93,58.671 L93,29.531 C90,31.638 86.225,34.159 82.413,37.054"/><path fill="#000" d="M53.933,22.561 C48.294,22.612 43.285,22.849 38.938,23.178 C40.654,24.783 42.384,26.412 43.936,28.203 C54.196,40.044 55.832,59.554 56.117,64.858 C56.153,64.876 56.174,64.886 56.174,64.886 C56.174,64.886 56.195,64.876 56.229,64.859 C56.507,59.556 58.162,40.044 68.381,28.203 C69.93,26.408 71.664,24.782 73.383,23.175 C69.094,22.852 64.164,22.617 58.62,22.563"/><path fill="#000" d="M326.392,17.89 C326.392,19.431 325.855,20.726 324.782,21.775 C323.708,22.825 322.355,23.35 320.723,23.35 C319.043,23.35 317.678,22.825 316.628,21.775 C315.578,20.726 315.053,19.431 315.053,17.89 C315.053,16.398 315.578,15.126 316.628,14.077 C317.678,13.026 319.043,12.501 320.723,12.501 C322.355,12.501 323.708,13.026 324.782,14.077 C325.855,15.126 326.392,16.398 326.392,17.89"/></mask><g mask="url(#k)" fill-rule="evenodd"><path fill="#ffffff" d="M110.741,76.789 C109.888,86.604 103.404,99.356 96.15,105.945 C96.15,105.945 91.362,110.302 85.728,114.65 C79.908,119.143 70.605,125.577 70.605,125.577 C62.952,130.889 49.486,130.889 41.876,125.577 C41.876,125.577 29.631,117.055 26.754,114.652 C23.878,112.249 16.33,105.945 16.33,105.945 C8.381,99.242 2.363,86.731 1.739,76.789 C1.739,76.789 0.964,67.606 0.964,56.491 C0.964,45.376 1.211,34.503 1.211,34.503 C1.221,24.569 9.138,14.671 18.284,11.01 C18.284,11.01 21.383,9.708 26.83,7.868 C31.581,6.263 38.94,4.59 38.94,4.59 C48.57,2.031 64.087,1.839 73.541,4.59 C73.541,4.59 81.201,6.529 85.314,7.803 C89.427,9.076 94.196,11.01 94.196,11.01 C103.571,14.671 111.272,24.487 111.27,34.503 C111.27,34.503 111.515,45.431 111.515,56.491 C111.515,67.551 110.741,76.789 110.741,76.789"/><path fill="#ffffff" d="M132.265,93.612 L132.265,26.382 L142.345,26.382 L142.975,32.232 C144.895,29.712 147.039,27.882 149.41,26.742 C151.78,25.603 154.225,25.032 156.745,25.032 C159.864,25.032 162.55,25.617 164.8,26.787 C167.05,27.957 168.896,29.637 170.335,31.827 C171.775,34.018 172.84,36.658 173.53,39.747 C174.219,42.837 174.565,46.272 174.565,50.052 C174.565,53.712 174.145,57.087 173.305,60.177 C172.464,63.268 171.25,65.937 169.66,68.187 C168.07,70.437 166.105,72.192 163.765,73.452 C161.425,74.712 158.755,75.342 155.755,75.342 C153.294,75.342 151.06,74.906 149.05,74.037 C147.039,73.167 145.284,71.863 143.785,70.122 L143.785,92.352 L132.265,93.612 L132.265,93.612 Z M152.515,66.522 C155.634,66.522 158.08,65.232 159.85,62.652 C161.619,60.073 162.505,55.902 162.505,50.142 C162.505,44.143 161.709,39.897 160.12,37.407 C158.53,34.917 156.264,33.672 153.325,33.672 C151.345,33.672 149.545,34.302 147.925,35.562 C146.305,36.822 144.924,38.323 143.785,40.062 L143.785,61.572 C145.945,64.873 148.855,66.522 152.515,66.522 L152.515,66.522 Z"/><path fill="#ffffff" d="M182.485,50.142 C182.485,46.422 182.994,43.018 184.015,39.927 C185.034,36.837 186.504,34.198 188.425,32.007 C190.344,29.818 192.7,28.107 195.49,26.876 C198.28,25.648 201.444,25.032 204.985,25.032 C208.524,25.032 211.674,25.632 214.435,26.832 C217.194,28.033 219.534,29.727 221.455,31.916 C223.374,34.108 224.83,36.748 225.82,39.837 C226.81,42.928 227.304,46.362 227.304,50.142 C227.304,53.982 226.794,57.448 225.775,60.537 C224.754,63.627 223.284,66.267 221.365,68.457 C219.444,70.648 217.104,72.342 214.345,73.541 C211.584,74.742 208.434,75.342 204.895,75.342 C201.354,75.342 198.204,74.757 195.445,73.587 C192.684,72.416 190.344,70.751 188.425,68.592 C186.504,66.432 185.034,63.792 184.015,60.672 C182.994,57.553 182.485,54.042 182.485,50.142 L182.485,50.142 Z M215.245,50.142 C215.245,44.502 214.39,40.363 212.68,37.722 C210.97,35.082 208.405,33.762 204.985,33.762 C201.565,33.762 198.969,35.082 197.2,37.722 C195.429,40.363 194.545,44.502 194.545,50.142 C194.545,55.902 195.414,60.087 197.155,62.697 C198.894,65.307 201.475,66.612 204.895,66.612 C208.315,66.612 210.894,65.307 212.635,62.697 C214.374,60.087 215.245,55.902 215.245,50.142 L215.245,50.142 Z"/><path fill="#ffffff" d="M251.424,66.791 C254.063,66.791 256.133,66.267 257.634,65.217 C259.133,64.167 259.884,62.773 259.884,61.032 C259.884,60.073 259.734,59.232 259.434,58.512 C259.133,57.791 258.579,57.148 257.769,56.577 C256.958,56.007 255.833,55.467 254.394,54.957 C252.954,54.448 251.064,53.892 248.724,53.291 C244.404,52.212 241.013,50.547 238.554,48.297 C236.093,46.047 234.864,42.973 234.864,39.072 C234.864,37.092 235.298,35.247 236.168,33.537 C237.038,31.827 238.298,30.342 239.949,29.082 C241.598,27.822 243.608,26.832 245.979,26.112 C248.348,25.392 251.003,25.032 253.944,25.032 C257.423,25.032 260.588,25.527 263.439,26.517 C266.288,27.507 268.673,28.693 270.594,30.072 L265.734,37.272 C263.993,36.073 262.179,35.157 260.289,34.527 C258.399,33.897 256.343,33.582 254.123,33.582 C251.784,33.582 249.939,34.018 248.589,34.887 C247.239,35.757 246.564,36.912 246.564,38.352 C246.564,39.193 246.713,39.897 247.014,40.467 C247.313,41.038 247.869,41.578 248.679,42.087 C249.489,42.597 250.582,43.108 251.964,43.617 C253.343,44.127 255.082,44.683 257.184,45.282 C259.344,45.882 261.338,46.573 263.168,47.352 C264.999,48.132 266.574,49.093 267.894,50.232 C269.213,51.373 270.234,52.751 270.954,54.372 C271.674,55.992 272.034,57.913 272.034,60.132 C272.034,62.652 271.478,64.857 270.369,66.747 C269.258,68.637 267.789,70.227 265.958,71.517 C264.128,72.808 261.984,73.767 259.524,74.397 C257.063,75.027 254.484,75.342 251.784,75.342 C247.644,75.342 243.984,74.712 240.804,73.452 C237.623,72.192 234.893,70.572 232.614,68.592 L238.554,62.022 C240.413,63.462 242.409,64.618 244.539,65.487 C246.668,66.357 248.963,66.791 251.424,66.791"/><path fill="#ffffff" d="M308.573,71.742 C306.953,72.943 305.078,73.843 302.948,74.442 C300.818,75.04 298.732,75.342 296.693,75.342 C294.052,75.342 291.818,74.966 289.988,74.217 C288.157,73.467 286.672,72.403 285.533,71.022 C284.393,69.642 283.567,67.993 283.058,66.072 C282.547,64.153 282.293,61.962 282.293,59.501 L282.293,34.572 L275.003,34.572 L275.003,26.382 L282.293,26.382 L282.293,15.852 L293.813,14.501 L293.813,26.382 L302.347,26.382 L301.087,34.572 L293.813,34.572 L293.813,59.501 C293.813,61.842 294.218,63.522 295.028,64.541 C295.838,65.563 297.112,66.072 298.853,66.072 C300.653,66.072 302.543,65.473 304.523,64.272 L308.573,71.742"/><path fill="#ffffff" d="M367.613,40.332 C367.613,37.933 367.147,36.223 366.217,35.202 C365.287,34.182 363.801,33.672 361.762,33.672 C359.783,33.672 357.983,34.332 356.363,35.652 C354.743,36.972 353.272,38.532 351.953,40.332 L351.953,73.992 L340.432,73.992 L340.432,26.382 L350.422,26.382 L351.233,32.322 C353.272,29.923 355.567,28.107 358.118,26.876 C360.667,25.648 363.352,25.032 366.172,25.032 C370.612,25.032 373.881,26.262 375.983,28.722 C378.083,31.183 379.132,34.662 379.132,39.162 L379.132,73.992 L367.613,73.992 L367.613,40.332"/><path fill="#ffffff" d="M392.631,26.317 L404.152,26.317 L404.152,73.992 L392.631,73.992 L392.631,26.317 Z"/><path fill="#ffffff" d="M445.372,71.742 C443.752,72.943 441.875,73.843 439.747,74.442 C437.616,75.04 435.531,75.342 433.492,75.342 C430.85,75.342 428.616,74.966 426.787,74.217 C424.956,73.467 423.47,72.403 422.331,71.022 C421.191,69.642 420.366,67.993 419.857,66.072 C419.346,64.153 419.091,61.962 419.091,59.501 L419.091,34.572 L411.801,34.572 L411.801,26.382 L419.091,26.382 L419.091,15.852 L430.612,14.501 L430.612,26.382 L442.221,26.382 L440.961,34.572 L430.612,34.572 L430.612,59.501 C430.612,61.842 431.016,63.522 431.827,64.541 C432.636,65.563 433.911,66.072 435.652,66.072 C437.452,66.072 439.341,65.473 441.322,64.272 L445.372,71.742"/><path fill="#ffffff" d="M451.761,26.317 L463.281,26.317 L463.281,73.992 L451.761,73.992 L451.761,26.317 Z"/><path fill="#ffffff" d="M512.511,61.662 C512.511,63.462 512.765,64.767 513.276,65.577 C513.785,66.387 514.64,67.033 515.841,67.512 L513.321,75.162 C510.801,74.921 508.686,74.321 506.976,73.362 C505.266,72.403 503.96,70.873 503.061,68.772 C501.32,71.053 499.191,72.718 496.67,73.767 C494.151,74.816 491.451,75.342 488.571,75.342 C486.11,75.342 483.92,74.982 482,74.262 C480.08,73.541 478.446,72.522 477.096,71.202 C475.746,69.883 474.71,68.308 473.991,66.477 C473.271,64.647 472.911,62.623 472.911,60.402 C472.911,55.303 474.846,51.402 478.716,48.702 C482.585,46.001 488.18,44.652 495.5,44.652 L501.351,44.652 L501.351,41.952 C501.351,38.892 500.616,36.777 499.146,35.607 C497.675,34.437 495.26,33.852 491.901,33.852 C490.34,33.852 488.495,34.047 486.366,34.437 C484.236,34.828 481.94,35.443 479.481,36.282 L476.691,28.362 C479.75,27.223 482.721,26.382 485.601,25.842 C488.481,25.302 491.15,25.032 493.611,25.032 C500.33,25.032 505.161,26.413 508.101,29.172 C511.039,31.932 512.511,35.953 512.511,41.232 L512.511,61.662 L512.511,61.662 Z M492.17,66.972 C494.09,66.972 495.816,66.462 497.346,65.442 C498.875,64.422 500.21,62.982 501.351,61.122 L501.351,51.582 L497.301,51.582 C492.86,51.582 489.741,52.302 487.941,53.742 C486.141,55.182 485.241,57.193 485.241,59.772 C485.241,64.573 487.55,66.972 492.17,66.972 L492.17,66.972 Z"/><path fill="#ffffff" d="M545.09,73.722 C543.95,74.202 542.69,74.591 541.311,74.892 C539.93,75.192 538.52,75.342 537.081,75.342 C533.661,75.342 530.916,74.321 528.846,72.282 C526.776,70.243 525.741,67.002 525.741,62.562 L525.741,7.302 L537.261,6.041 L537.261,62.382 C537.261,63.763 537.486,64.722 537.936,65.262 C538.385,65.802 539.03,66.072 539.87,66.072 C540.889,66.072 541.789,65.923 542.571,65.622 L545.09,73.722"/><path fill="#ffffff" d="M314.962,34.651 L314.962,73.992 L326.483,73.992 L326.483,34.631 C324.647,35.082 322.727,35.334 320.723,35.334 C318.711,35.334 316.792,35.087 314.962,34.651"/><path fill="#5BB75B" d="M330.871,4.15 C328.187,1.524 324.805,0.212 320.723,0.212 C316.523,0.212 313.112,1.524 310.486,4.15 C307.862,6.774 306.55,9.954 306.55,13.685 C306.55,17.535 307.862,20.772 310.486,23.396 C311.823,24.734 313.368,25.726 315.114,26.382 C316.795,27.014 318.663,27.334 320.723,27.334 C322.726,27.334 324.557,27.014 326.223,26.382 C327.953,25.726 329.504,24.734 330.871,23.396 C333.554,20.772 334.896,17.535 334.896,13.685 C334.896,9.954 333.554,6.774 330.871,4.15"/></g></svg>
